<svg width="42" height="54" viewBox="0 0 42 54" fill="none" xmlns="http://www.w3.org/2000/svg">
<path d="M4.91 51.26C5.23667 50.9333 5.4 50.5133 5.4 50V5.34C5.4 5.10666 5.49333 4.92 5.68 4.78C5.86667 4.59333 6.07667 4.5 6.31 4.5C6.54333 4.5 6.73 4.59333 6.87 4.78C7.05667 4.92 7.15 5.10666 7.15 5.34V50C7.15 50.98 6.8 51.7967 6.1 52.45C5.44667 53.15 4.63 53.5 3.65 53.5C2.67 53.5 1.85333 53.15 1.2 52.45C0.5 51.7967 0.15 50.98 0.15 50V38.66C0.15 38.4267 0.243333 38.2167 0.43 38.03C0.57 37.8433 0.756667 37.75 0.99 37.75C1.59667 37.75 1.9 38.0533 1.9 38.66V50C1.9 50.5133 2.06333 50.9333 2.39 51.26C2.71667 51.5867 3.13667 51.75 3.65 51.75C4.16333 51.75 4.58333 51.5867 4.91 51.26ZM5.4 1C5.4 0.393332 5.70333 0.0899988 6.31 0.0899988C6.54333 0.0899988 6.73 0.183332 6.87 0.369999C7.05667 0.556665 7.15 0.766665 7.15 1C7.15 1.23333 7.05667 1.44333 6.87 1.63C6.73 1.77 6.54333 1.84 6.31 1.84C5.70333 1.84 5.4 1.56 5.4 1ZM13.4101 27.25C13.9234 27.25 14.3434 27.0867 14.6701 26.76C14.9967 26.4333 15.1601 26.0133 15.1601 25.5V5.34C15.1601 5.10666 15.2534 4.92 15.4401 4.78C15.6267 4.59333 15.8367 4.5 16.0701 4.5C16.3034 4.5 16.4901 4.59333 16.6301 4.78C16.8167 4.92 16.9101 5.10666 16.9101 5.34V25.5C16.9101 26.48 16.5601 27.32 15.8601 28.02C15.2067 28.6733 14.3901 29 13.4101 29C12.4301 29 11.5901 28.6733 10.8901 28.02C10.2367 27.32 9.91008 26.48 9.91008 25.5V5.34C9.91008 5.10666 10.0034 4.92 10.1901 4.78C10.3767 4.59333 10.5867 4.5 10.8201 4.5C11.0534 4.5 11.2401 4.59333 11.3801 4.78C11.5667 4.92 11.6601 5.10666 11.6601 5.34V25.5C11.6601 26.0133 11.8234 26.4333 12.1501 26.76C12.4767 27.0867 12.8967 27.25 13.4101 27.25ZM23.0488 6.25C22.5354 6.25 22.1154 6.41333 21.7888 6.74C21.4621 7.06667 21.2988 7.48667 21.2988 8V28.09C21.2988 28.3233 21.2054 28.5333 21.0188 28.72C20.8788 28.9067 20.6921 29 20.4588 29C19.8521 29 19.5488 28.6967 19.5488 28.09V8C19.5488 7.02 19.8754 6.20333 20.5287 5.55C21.2288 4.85 22.0688 4.5 23.0488 4.5C24.0288 4.5 24.9154 4.89667 25.7088 5.69C26.4088 4.89667 27.2721 4.5 28.2988 4.5C29.2788 4.5 30.0954 4.85 30.7488 5.55C31.4488 6.20333 31.7988 7.02 31.7988 8V28.09C31.7988 28.3233 31.7054 28.5333 31.5188 28.72C31.3788 28.9067 31.1921 29 30.9588 29C30.3521 29 30.0488 28.6967 30.0488 28.09V8C30.0488 7.48667 29.8854 7.06667 29.5588 6.74C29.2321 6.41333 28.8121 6.25 28.2988 6.25C27.7854 6.25 27.3654 6.41333 27.0388 6.74C26.7121 7.06667 26.5488 7.48667 26.5488 8V28.09C26.5488 28.3233 26.4554 28.5333 26.2688 28.72C26.1288 28.9067 25.9421 29 25.7088 29C25.1021 29 24.7988 28.6967 24.7988 28.09V8C24.7988 7.48667 24.6354 7.06667 24.3088 6.74C23.9821 6.41333 23.5621 6.25 23.0488 6.25ZM35.9911 38.03C36.1311 38.2167 36.2011 38.4267 36.2011 38.66V50C36.2011 50.5133 36.3644 50.9333 36.6911 51.26C37.0178 51.5867 37.4378 51.75 37.9511 51.75C38.4644 51.75 38.8844 51.5867 39.2111 51.26C39.5378 50.9333 39.7011 50.5133 39.7011 50V28.51C39.1411 28.8367 38.5578 29 37.9511 29C36.9711 29 36.1311 28.6733 35.4311 28.02C34.7778 27.32 34.4511 26.48 34.4511 25.5V5.34C34.4511 5.10666 34.5444 4.92 34.7311 4.78C34.9178 4.59333 35.1278 4.5 35.3611 4.5C35.5944 4.5 35.7811 4.59333 35.9211 4.78C36.1078 4.92 36.2011 5.10666 36.2011 5.34V25.5C36.2011 26.0133 36.3644 26.4333 36.6911 26.76C37.0178 27.0867 37.4378 27.25 37.9511 27.25C38.4644 27.25 38.8844 27.0867 39.2111 26.76C39.5378 26.4333 39.7011 26.0133 39.7011 25.5V5.34C39.7011 5.10666 39.7944 4.92 39.9811 4.78C40.1678 4.59333 40.3778 4.5 40.6111 4.5C40.8444 4.5 41.0311 4.59333 41.1711 4.78C41.3578 4.92 41.4511 5.10666 41.4511 5.34V50C41.4511 50.98 41.1011 51.7967 40.4011 52.45C39.7478 53.15 38.9311 53.5 37.9511 53.5C36.9711 53.5 36.1311 53.15 35.4311 52.45C34.7778 51.7967 34.4511 50.98 34.4511 50V38.66C34.4511 38.0533 34.7544 37.75 35.3611 37.75C35.5944 37.75 35.8044 37.8433 35.9911 38.03Z" fill="black"/>
</svg>
